<?xml version="1.0"?>
<svg xmlns="http://www.w3.org/2000/svg" xmlns:xlink="http://www.w3.org/1999/xlink" version="1.1" id="Layer_1" x="0px" y="0px" viewBox="0 0 512 512" style="enable-background:new 0 0 512 512;" xml:space="preserve" width="512px" height="512px"><g><g>
	<g>
		<path d="M256,0c-29.397,0-53.333,23.936-53.333,53.333s23.936,53.333,53.333,53.333s53.333-23.936,53.333-53.333S285.397,0,256,0z     M256,85.333c-17.643,0-32-14.357-32-32c0-17.643,14.357-32,32-32s32,14.357,32,32C288,70.976,273.643,85.333,256,85.333z" data-original="#000000" class="active-path" data-old_color="#ffffff" fill="#ffffff"/>
	</g>
</g><g>
	<g>
		<path d="M256,85.333c-52.928,0-96,43.072-96,96c0,5.888,4.779,10.667,10.667,10.667h170.667c5.888,0,10.667-4.779,10.667-10.667    C352,128.405,308.928,85.333,256,85.333z M182.101,170.667c5.184-36.139,36.352-64,73.899-64s68.715,27.861,73.92,64H182.101z" data-original="#000000" class="active-path" data-old_color="#ffffff" fill="#ffffff"/>
	</g>
</g><g>
	<g>
		<path d="M106.667,320c-29.397,0-53.333,23.936-53.333,53.333s23.936,53.333,53.333,53.333S160,402.731,160,373.333    S136.064,320,106.667,320z M106.667,405.333c-17.643,0-32-14.357-32-32c0-17.643,14.357-32,32-32c17.643,0,32,14.357,32,32    C138.667,390.976,124.309,405.333,106.667,405.333z" data-original="#000000" class="active-path" data-old_color="#ffffff" fill="#ffffff"/>
	</g>
</g><g>
	<g>
		<path d="M106.667,405.333c-52.928,0-96,43.072-96,96c0,5.888,4.779,10.667,10.667,10.667H192c5.888,0,10.667-4.779,10.667-10.667    C202.667,448.405,159.595,405.333,106.667,405.333z M32.768,490.667c5.184-36.139,36.352-64,73.899-64    c37.547,0,68.715,27.861,73.92,64H32.768z" data-original="#000000" class="active-path" data-old_color="#ffffff" fill="#ffffff"/>
	</g>
</g><g>
	<g>
		<path d="M405.333,320C375.936,320,352,343.936,352,373.333s23.936,53.333,53.333,53.333s53.333-23.936,53.333-53.333    S434.731,320,405.333,320z M405.333,405.333c-17.643,0-32-14.357-32-32c0-17.643,14.357-32,32-32c17.643,0,32,14.357,32,32    C437.333,390.976,422.976,405.333,405.333,405.333z" data-original="#000000" class="active-path" data-old_color="#ffffff" fill="#ffffff"/>
	</g>
</g><g>
	<g>
		<path d="M405.333,405.333c-52.928,0-96,43.072-96,96c0,5.888,4.779,10.667,10.667,10.667h170.667    c5.888,0,10.667-4.779,10.667-10.667C501.333,448.405,458.261,405.333,405.333,405.333z M331.435,490.667    c5.184-36.139,36.373-64,73.92-64s68.715,27.861,73.899,64H331.435z" data-original="#000000" class="active-path" data-old_color="#ffffff" fill="#ffffff"/>
	</g>
</g><g>
	<g>
		<path d="M149.333,106.667h-42.667c-5.888,0-10.667,4.779-10.667,10.667V288c0,5.888,4.779,10.667,10.667,10.667    s10.667-4.779,10.667-10.667V128h32c5.888,0,10.667-4.779,10.667-10.667S155.221,106.667,149.333,106.667z" data-original="#000000" class="active-path" data-old_color="#ffffff" fill="#ffffff"/>
	</g>
</g><g>
	<g>
		<path d="M405.333,106.667h-42.667c-5.888,0-10.667,4.779-10.667,10.667S356.779,128,362.667,128h32v160    c0,5.888,4.779,10.667,10.667,10.667c5.888,0,10.667-4.779,10.667-10.667V117.333C416,111.445,411.221,106.667,405.333,106.667z" data-original="#000000" class="active-path" data-old_color="#ffffff" fill="#ffffff"/>
	</g>
</g></g> </svg>
