<?xml version="1.0"?>
<svg xmlns="http://www.w3.org/2000/svg" xmlns:xlink="http://www.w3.org/1999/xlink" version="1.1" id="Layer_1" x="0px" y="0px" viewBox="0 0 512 512" style="enable-background:new 0 0 512 512;" xml:space="preserve" width="512px" height="512px" class=""><g><g>
	<g>
		<path d="M371.92,42.667c-5.888,0-10.667,4.779-10.667,10.667v64c0,5.888,4.779,10.667,10.667,10.667h64    c5.888,0,10.667-4.779,10.667-10.667C446.587,76.16,413.093,42.667,371.92,42.667z M382.587,106.667v-41.6    c20.864,4.267,37.355,20.736,41.6,41.6H382.587z" data-original="#000000" class="active-path" data-old_color="#ffffff" fill="#ffffff"/>
	</g>
</g><g>
	<g>
		<path d="M499.92,0H201.253c-5.909,0-10.667,4.779-10.667,10.667s4.779,10.667,10.667,10.667H499.92    c5.888,0,10.667-4.779,10.667-10.667S505.808,0,499.92,0z" data-original="#000000" class="active-path" data-old_color="#ffffff" fill="#ffffff"/>
	</g>
</g><g>
	<g>
		<path d="M222.586,0c-5.888,0-10.667,4.779-10.667,10.667v256c0,5.888,4.779,10.667,10.667,10.667s10.667-4.779,10.667-10.667v-256    C233.253,4.779,228.474,0,222.586,0z" data-original="#000000" class="active-path" data-old_color="#ffffff" fill="#ffffff"/>
	</g>
</g><g>
	<g>
		<path d="M478.587,0c-5.888,0-10.667,4.779-10.667,10.667V256H222.586c-5.888,0-10.667,4.779-10.667,10.667    s4.779,10.667,10.667,10.667h256c5.888,0,10.667-4.779,10.667-10.667v-256C489.253,4.779,484.474,0,478.587,0z" data-original="#000000" class="active-path" data-old_color="#ffffff" fill="#ffffff"/>
	</g>
</g><g>
	<g>
		<path d="M350.587,256c-5.888,0-10.667,4.779-10.667,10.667V352c0,5.888,4.779,10.667,10.667,10.667    c5.888,0,10.667-4.779,10.667-10.667v-85.333C361.253,260.779,356.474,256,350.587,256z" data-original="#000000" class="active-path" data-old_color="#ffffff" fill="#ffffff"/>
	</g>
</g><g>
	<g>
		<path d="M350.587,341.333c-17.643,0-32,14.357-32,32c0,17.643,14.357,32,32,32c17.643,0,32-14.357,32-32    C382.587,355.691,368.229,341.333,350.587,341.333z M350.587,384c-5.888,0-10.667-4.779-10.667-10.667    c0-5.888,4.779-10.667,10.667-10.667c5.867,0,10.667,4.779,10.667,10.667C361.253,379.221,356.474,384,350.587,384z" data-original="#000000" class="active-path" data-old_color="#ffffff" fill="#ffffff"/>
	</g>
</g><g>
	<g>
		<path d="M187.493,326.699L173.84,217.387c-3.328-26.645-26.091-46.72-52.928-46.72H68.24c-26.837,0-49.6,20.075-52.928,46.72    L1.658,326.699c-1.131,9.109,1.685,18.261,7.765,25.152c5.611,6.357,13.483,10.197,21.888,10.752l9.963,139.499    C41.68,507.669,46.33,512,51.92,512h85.333c5.589,0,10.219-4.331,10.624-9.899l9.963-139.499    c8.405-0.555,16.277-4.395,21.888-10.752C185.808,344.96,188.624,335.808,187.493,326.699z M163.749,337.728    c-2.048,2.325-4.885,3.605-8,3.605h-7.829c-5.611,0-10.24,4.331-10.645,9.899l-9.963,139.435H61.84l-9.963-139.435    c-0.405-5.568-5.056-9.899-10.645-9.899h-7.829c-3.093,0-5.931-1.28-8-3.605c-2.048-2.325-2.965-5.291-2.581-8.384l13.653-109.312    C38.48,204.053,52.133,192,68.24,192h52.672c16.107,0,29.76,12.053,31.765,28.032l13.653,109.312    C166.715,332.416,165.797,335.403,163.749,337.728z" data-original="#000000" class="active-path" data-old_color="#ffffff" fill="#ffffff"/>
	</g>
</g><g>
	<g>
		<path d="M94.586,42.667c-29.419,0-53.333,23.936-53.333,53.333s23.936,53.333,53.333,53.333S147.92,125.397,147.92,96    S124.005,42.667,94.586,42.667z M94.586,128c-17.664,0-32-14.357-32-32c0-17.643,14.357-32,32-32c17.643,0,32,14.357,32,32    C126.586,113.643,112.25,128,94.586,128z" data-original="#000000" class="active-path" data-old_color="#ffffff" fill="#ffffff"/>
	</g>
</g><g>
	<g>
		<path d="M94.586,170.667c-5.888,0-10.667,4.779-10.667,10.667v21.333c0,5.888,4.779,10.667,10.667,10.667    s10.667-4.779,10.667-10.667v-21.333C105.253,175.445,100.474,170.667,94.586,170.667z" data-original="#000000" class="active-path" data-old_color="#ffffff" fill="#ffffff"/>
	</g>
</g><g>
	<g>
		<path d="M94.586,234.667c-5.888,0-10.667,4.779-10.667,10.667V288c0,5.888,4.779,10.667,10.667,10.667s10.667-4.779,10.667-10.667    v-42.667C105.253,239.445,100.474,234.667,94.586,234.667z" data-original="#000000" class="active-path" data-old_color="#ffffff" fill="#ffffff"/>
	</g>
</g><g>
	<g>
		<path d="M414.587,128c-5.888,0-10.667,4.779-10.667,10.667c0,29.397-23.936,53.333-53.333,53.333    c-29.397,0-53.333-23.936-53.333-53.333s23.936-53.333,53.333-53.333c5.888,0,10.667-4.779,10.667-10.667S356.474,64,350.587,64    c-41.173,0-74.667,33.493-74.667,74.667s33.493,74.667,74.667,74.667c41.152,0,74.667-33.493,74.667-74.667    C425.253,132.779,420.474,128,414.587,128z" data-original="#000000" class="active-path" data-old_color="#ffffff" fill="#ffffff"/>
	</g>
</g></g> </svg>
