<?xml version="1.0" encoding="utf-8"?>
<!-- Generator: Adobe Illustrator 21.0.2, SVG Export Plug-In . SVG Version: 6.00 Build 0)  -->
<svg version="1.1" id="Layer_1" xmlns="http://www.w3.org/2000/svg" xmlns:xlink="http://www.w3.org/1999/xlink" x="0px" y="0px"
	 viewBox="0 0 996.6 301.7" style="enable-background:new 0 0 996.6 301.7;" xml:space="preserve">
<style type="text/css">
	.st0{fill:#018281;}
	.st1{fill:#1E4382;}
</style>
<g id="XMLID_1_">
	<g id="XMLID_2_">
		<g id="XMLID_3_">
			<g>
				<path id="XMLID_173_" class="st0" d="M529.8,145c-4-6.7-15.2-13.1-28-13.1c-16.5,0-24.4,6.9-24.4,15.7
					c0,10.3,12.1,13.1,26.3,14.8c24.6,3,47.5,9.4,47.5,37.6c0,26.3-23.2,37.6-49.5,37.6c-24.1,0-42.6-7.4-51.4-29l18.5-9.6
					c5.2,13,18.9,18.7,33.2,18.7c14,0,27.1-4.9,27.1-17.7c0-11.1-11.6-15.7-27.3-17.3c-24.1-2.9-46.3-9.3-46.3-35.7
					c0-24.2,23.9-34.2,45.6-34.4c18.4,0,37.4,5.2,46.3,23.4L529.8,145z"/>
				<path id="XMLID_170_" class="st0" d="M638,151.4h19.7v83h-19.4l-1-12.1c-4.7,9.8-17.7,14.5-26.9,14.6
					c-24.6,0.2-42.8-15-42.8-44.1c0-28.6,19-43.6,43.3-43.4c11.1,0,21.7,5.2,26.4,13.5L638,151.4z M588.2,192.8
					c0,15.8,10.9,25.3,24.6,25.3c32.3,0,32.3-50.4,0-50.4C599.1,167.7,588.2,177,588.2,192.8z"/>
				<path id="XMLID_168_" class="st0" d="M681.8,234.4v-63.8h-15.5v-18h15.5V147c0-22.2,15-32.5,31.7-32.5c7.2,0,14.8,2.4,21.6,6.7
					l-7.6,15.3c-4.4-2.9-8.4-4.4-12.6-4.4c-7.1,0-12.5,4.7-12.5,14.8v5.6h24.4v18h-24.4v63.8H681.8z"/>
				<path id="XMLID_165_" class="st0" d="M760.4,200.2c1.3,10.3,10.3,17.7,24.8,17.7c7.6,0,17.5-2.9,22.2-7.7l13.1,13
					c-8.8,9.1-23.1,13.5-35.7,13.5c-28.6,0-45.6-17.7-45.6-44.3c0-25.3,17.2-43.4,44.1-43.4c27.8,0,45.1,17.2,41.9,51.4H760.4z
					 M805.6,183.2c-1.3-10.8-9.8-16.2-21.6-16.2c-11.1,0-20.2,5.4-23.2,16.2H805.6z"/>
				<path id="XMLID_163_" class="st0" d="M866.5,128v23.6h22.9v17.7h-23.1v35.9c0,7.9,4.4,11.8,10.8,11.8c3.2,0,6.9-1,9.9-2.5
					l5.7,17.5c-5.9,2.4-10.8,3.4-17,3.5c-18,0.7-29.8-9.6-29.8-30.3v-35.9h-15.5v-17.7H846v-21.4L866.5,128z"/>
				<path id="XMLID_161_" class="st0" d="M990.3,151.4l-50.7,117.7H917l15.5-36l-33.2-81.7h23.9l12.6,35.9l7.9,23.4l8.6-22.9
					l15.2-36.4H990.3z"/>
			</g>
		</g>
		<g id="XMLID_20_">
			<g>
				<path id="XMLID_301_" class="st1" d="M450.3,281.5v-32.9H474v6h-17.5v9H473v5.7h-16.5v12.2H450.3z"/>
				<path id="XMLID_299_" class="st1" d="M483.5,281.5v-33h6.2v33H483.5z"/>
				<path id="XMLID_296_" class="st1" d="M529.5,281.5h-7.4l-9.6-11h-6v11h-6.2v-33c5.2,0,10.5,0,15.7,0c7.8,0,11.9,5.2,11.9,10.9
					c0,4.5-2.1,9.1-8.3,10.4l10,11.3V281.5z M506.5,254.3v10.6h9.5c4,0,5.7-2.6,5.7-5.3c0-2.6-1.7-5.3-5.7-5.3H506.5z"/>
				<path id="XMLID_294_" class="st1" d="M558.5,256.5c-1.1-1.9-4.2-3.7-7.8-3.7c-4.6,0-6.8,1.9-6.8,4.4c0,2.9,3.4,3.7,7.3,4.1
					c6.9,0.8,13.3,2.6,13.3,10.5c0,7.3-6.5,10.5-13.8,10.5c-6.7,0-11.9-2.1-14.4-8.1l5.2-2.7c1.5,3.6,5.3,5.2,9.3,5.2
					c3.9,0,7.6-1.4,7.6-4.9c0-3.1-3.3-4.4-7.6-4.9c-6.7-0.8-13-2.6-13-10c0-6.8,6.7-9.6,12.8-9.6c5.1,0,10.5,1.5,13,6.5L558.5,256.5
					z"/>
				<path id="XMLID_292_" class="st1" d="M582.5,254.2h-10.5v-5.7c9.5,0,17.6,0,27.1,0v5.7h-10.5v27.3h-6.2V254.2z"/>
				<path id="XMLID_289_" class="st1" d="M645.3,275.3h-17.2l-2.8,6.2h-6.7l14.8-33h6.8l14.8,33h-6.8L645.3,275.3z M636.7,255.5
					l-6.1,14h12.2L636.7,255.5z"/>
				<path id="XMLID_286_" class="st1" d="M693.2,264.6c0,3.8-0.9,7.7-3.1,10.7l3.9,3.9l-4.4,4.4l-4-4c-2.5,1.6-5.7,2.4-9.4,2.4
					c-11.7,0-16.9-8.5-17-17.1c0-8.6,5.4-17.2,17-17.2C687.9,247.7,693.1,256.1,693.2,264.6z M665.5,265.1
					c0.1,5.4,3.7,11.2,10.8,11.2c7.4,0,11-6.3,10.8-11.9c-0.2-5.3-3-11.1-10.8-11.1C668.6,253.3,665.4,259.6,665.5,265.1z"/>
				<path id="XMLID_284_" class="st1" d="M731.4,248.6v18.9c0,9.8-6,14.7-14.3,14.7c-7.9,0-14.7-4.8-14.7-14.7v-18.9h6.2v18.9
					c0,5.9,3.4,9.1,8.5,9.1c5.1,0,8.1-3.4,8.1-9.1v-18.9H731.4z"/>
				<path id="XMLID_281_" class="st1" d="M765.6,275.3h-17.2l-2.8,6.2h-6.7l14.8-33h6.8l14.8,33h-6.8L765.6,275.3z M757,255.5
					l-6.1,14h12.2L757,255.5z"/>
				<path id="XMLID_279_" class="st1" d="M785.8,254.2h-10.5v-5.7c9.5,0,17.6,0,27.1,0v5.7H792v27.3h-6.2V254.2z"/>
				<path id="XMLID_277_" class="st1" d="M811,281.5v-33h6.2v33H811z"/>
				<path id="XMLID_275_" class="st1" d="M856.8,277.4c-3.4,3.3-7.8,4.9-12.5,4.9c-12.2,0-17.4-8.4-17.5-17
					c0-8.6,5.6-17.4,17.5-17.4c4.5,0,8.7,1.7,12.1,5l-4.1,4c-2.2-2.1-5.1-3.1-8-3.1c-8,0-11.4,5.9-11.4,11.4
					c0,5.5,3.2,11.2,11.4,11.2c2.9,0,6.1-1.2,8.3-3.3L856.8,277.4z"/>
				<path id="XMLID_273_" class="st1" d="M885.8,256.5c-1.1-1.9-4.2-3.7-7.8-3.7c-4.6,0-6.8,1.9-6.8,4.4c0,2.9,3.4,3.7,7.3,4.1
					c6.9,0.8,13.3,2.6,13.3,10.5c0,7.3-6.5,10.5-13.8,10.5c-6.7,0-11.9-2.1-14.4-8.1l5.2-2.7c1.5,3.6,5.3,5.2,9.3,5.2
					c3.9,0,7.6-1.4,7.6-4.9c0-3.1-3.3-4.4-7.6-4.9c-6.7-0.8-13-2.6-13-10c0-6.8,6.7-9.6,12.8-9.6c5.1,0,10.5,1.5,13,6.5L885.8,256.5
					z"/>
			</g>
		</g>
	</g>
	<g id="XMLID_21_">
		<path id="XMLID_111_" class="st0" d="M224.1,245.9C224.1,245.9,224.1,246,224.1,245.9L224.1,245.9L224.1,245.9z"/>
		<circle id="XMLID_112_" class="st0" cx="266.8" cy="113.3" r="27.4"/>
		<path id="XMLID_113_" class="st0" d="M150.5,30.6c-4.4,0.2-8.8,0.6-13.1,1.3c-19.5,17.8-30.5,45.3-24.9,71.7
			c-0.4-14,2.1-28.1,8.5-40.6C127.1,49.4,137.7,38.3,150.5,30.6z"/>
		<path id="XMLID_114_" class="st0" d="M107.8,42.7c-4.4,0.5-8.7,1.2-13,2.2C76.5,63.9,67.3,92.1,74.6,118
			c-1.3-13.9,0.2-28.2,5.8-41.1C85.7,62.9,95.5,51.1,107.8,42.7z"/>
		<path id="XMLID_115_" class="st0" d="M224.9,21.8c18.8,7.2,31.9,23.5,41.6,40.4c-9.5-34.1-46-57.9-81-53.6
			c-10.9,0.5-21.3,3.7-30.6,8.9c5.3,0.2,10.7,0.6,16,1.4C188.5,13.3,208,13.7,224.9,21.8z"/>
		<path id="XMLID_116_" class="st1" d="M378.8,159.5c-12.1-3.3-24.4-6.1-36.8-8.1c-23.2-3.9-46.8-5.9-69.9-1.7
			c-5,0.9-9.9,1.9-14.8,2.9c-22.2-27-55.3-57.3-93.2-46.2c-9.4,3.2-18.1,7.6-26.3,12.8c-20.9-2.7-42.9,2.6-59.1,16.7
			c12-7.1,25.6-11.9,39.6-12.4c4.3-0.4,8.6-0.3,12.9,0.2c-4.7,3.4-9.3,7.1-13.7,11c-20-1.8-40.6,3.6-56,17.1
			c12-7.1,25.6-11.9,39.6-12.4c3.7-0.3,7.5-0.3,11.1,0c-5.7,5.3-11.2,10.8-16.5,16.4c7.2-4.7,16.7-10.3,27.2-14.7
			c3.1-1.3,6.3-2.6,9.6-3.7c8.9-3,18.1-4.9,27.1-4.6c0.5,0.3,0.9,0.5,1.4,0.8c-0.2-0.2-0.3-0.5-0.5-0.7c14.8,0.6,28.7,7.2,38.4,24.5
			c-2.3,3.1-6.7,9-9.4,12.8c-7.6,2.4-15.2,4.9-22.7,7.6c-33.5,12-69.2,21.9-105.2,24.9c-14,1.2-27.8,1.1-41.5,0.1
			c-1-4.3-1.8-8.6-2.3-12.9C5.2,118.6,58.3,42.2,130.1,31.2c2.7-0.6,5.3-1.2,8-1.6c4.4-0.7,8.8-1.1,13.1-1.3
			c28.4-1.1,56.7,8.3,82.2,20.7c-18.5-15.6-41.3-25-65-28.4c-5.3-0.8-10.6-1.2-16-1.4C118.3,18,83.6,29,57.9,51.8
			C12.5,86-3.1,148.9,12.5,202.1c1.5,5.1,3.3,10.1,5.3,15c2.4,0.7,4.8,1.4,7.2,2.1c2.6,0.7,5.1,1.4,7.7,2.1
			c93.7,24.8,178.9-38,268.9-50.9c32.1-4.6,64.6-2.7,96.8-0.8c1.6,0,3.9,0.1,6.2,0.1v-1.2C396,166.2,386.5,161.5,378.8,159.5z"/>
		<path id="XMLID_117_" class="st0" d="M127,224.9c-13.4,3.9-25.9,10.9-39.9,12.6c-23.8,4-48.5-2.3-68.9-14.7
			c22.6,19.7,54.2,30.4,84.2,25.2c16.8-2.5,31.2-12.1,48-14.5c24.1-4.4,49.4,1.6,70.4,13.8C195.7,225.7,159.3,215.6,127,224.9z"/>
		<path id="XMLID_118_" class="st1" d="M247.5,265.6c-9.6-5.4-18.6-12.1-29-16c-24.1-10.8-52.7-10.7-76.7-0.5
			c-10.2,4.5-21.1,7.8-32.2,9c-22,2.6-44-3.7-63.2-14.3c22.9,19,54.3,29.6,84.1,23.9c15.6-2.3,29.1-11.4,44.7-13.9
			c22.3-4.9,45.5,0.2,66,9.6l0,0l0,0c2,0.9,4,1.9,5.9,2.9c0,0,0,0,0,0l0.3,0.1C247.4,266.1,247.5,265.8,247.5,265.6z"/>
		<path id="XMLID_119_" class="st0" d="M260.4,277l-4.8-2.5c-0.5-0.2-1-0.5-1.5-0.7c-2.5-1.4-5.1-2.7-7.8-3.9c0,0,0-0.1,0-0.1
			l-2.8-1.4c-23.9-9.4-51.3-10.1-74.9,0c-14.9,6.5-31.1,10.6-47.6,9.7c-16.9-0.4-32.7-6.9-47.9-13.8c22.8,17.4,52.4,28.1,81.3,23.1
			c17.3-2.2,32.1-12.4,49.4-14.7c24.2-4.3,49.4,1.8,70.5,14C270,283.2,265.4,279.8,260.4,277z"/>
		<path id="XMLID_121_" class="st0" d="M278.5,191.1c-12.1,7-22.6,16.6-35.8,21.6c-22.2,9.4-47.7,9.2-70.5,1.9
			c26.6,13.8,59.9,16.8,87.8,4.7c15.7-6.3,27.5-19.1,43.3-25.4c22.4-10,48.4-10.1,71.7-3.1C345.4,175.8,307.7,174.4,278.5,191.1z"/>
		<path id="XMLID_122_" class="st1" d="M405.2,202.3c-10.6-3-20.9-7.4-32-8.7c-26-4.9-53.8,2-74.7,17.6
			c-8.8,6.8-18.6,12.5-29.2,16.3c-20.8,7.7-43.7,6.8-64.8,1c26.8,13.1,59.7,16,87.3,3.5c14.7-5.9,25.6-17.9,40.2-24
			c20.5-10,44.3-10.5,66.4-6.2l0,0l0,0c2.2,0.4,4.3,0.9,6.5,1.4c0,0,0,0,0,0l0.3,0.1C405.2,202.9,405.2,202.6,405.2,202.3z"/>
		<path id="XMLID_124_" class="st0" d="M420.4,210.4l-5.3-1.3c-0.5-0.1-1.1-0.2-1.6-0.3c-2.8-0.7-5.6-1.4-8.5-2c0,0,0-0.1,0-0.1
			l-3-0.7c-25.4-3.5-52.3,2.3-72.8,17.6c-13,9.8-27.8,17.6-44,20.7c-16.5,3.6-33.4,1-49.8-2.1c26.3,11.6,57.5,15,84.5,3.3
			c16.3-6.2,28.3-19.6,44.6-25.9c22.5-9.9,48.4-9.9,71.8-2.9C431.1,214.2,425.9,212,420.4,210.4z"/>
	</g>
</g>
</svg>
